<mxfile host="app.diagrams.net" agent="Mozilla/5.0 (Windows NT 10.0; Win64; x64) AppleWebKit/537.36 (KHTML, like Gecko) Chrome/131.0.0.0 Safari/537.36" version="24.8.6">
  <diagram name="Página-1" id="xbYoI6ZJjHZxEMP6y_lM">
    <mxGraphModel grid="1" page="1" gridSize="10" guides="1" tooltips="1" connect="1" arrows="1" fold="1" pageScale="1" pageWidth="827" pageHeight="1169" math="0" shadow="0">
      <root>
        <mxCell id="0" />
        <mxCell id="1" parent="0" />
        <mxCell id="4xsE8DLzDOIBzloG8qF1-1" value="Membros" style="whiteSpace=wrap;html=1;align=center;" vertex="1" parent="1">
          <mxGeometry x="960" y="385" width="100" height="40" as="geometry" />
        </mxCell>
        <mxCell id="4xsE8DLzDOIBzloG8qF1-2" value="Circuito" style="whiteSpace=wrap;html=1;align=center;" vertex="1" parent="1">
          <mxGeometry x="670" y="110" width="100" height="40" as="geometry" />
        </mxCell>
        <mxCell id="4xsE8DLzDOIBzloG8qF1-3" value="Teste" style="whiteSpace=wrap;html=1;align=center;" vertex="1" parent="1">
          <mxGeometry x="80" y="110" width="100" height="40" as="geometry" />
        </mxCell>
        <mxCell id="4xsE8DLzDOIBzloG8qF1-4" value="Metodologia" style="whiteSpace=wrap;html=1;align=center;" vertex="1" parent="1">
          <mxGeometry x="-410" y="455" width="100" height="40" as="geometry" />
        </mxCell>
        <mxCell id="4xsE8DLzDOIBzloG8qF1-125" style="edgeStyle=orthogonalEdgeStyle;rounded=0;orthogonalLoop=1;jettySize=auto;html=1;entryX=0;entryY=0.5;entryDx=0;entryDy=0;endArrow=none;endFill=0;" edge="1" parent="1" source="4xsE8DLzDOIBzloG8qF1-5" target="4xsE8DLzDOIBzloG8qF1-123">
          <mxGeometry relative="1" as="geometry" />
        </mxCell>
        <mxCell id="4xsE8DLzDOIBzloG8qF1-5" value="Logs" style="whiteSpace=wrap;html=1;align=center;" vertex="1" parent="1">
          <mxGeometry x="-930" y="112.5" width="520" height="40" as="geometry" />
        </mxCell>
        <mxCell id="4xsE8DLzDOIBzloG8qF1-25" style="edgeStyle=orthogonalEdgeStyle;rounded=0;orthogonalLoop=1;jettySize=auto;html=1;entryX=0.25;entryY=0;entryDx=0;entryDy=0;endArrow=none;endFill=0;" edge="1" parent="1" source="4xsE8DLzDOIBzloG8qF1-6" target="4xsE8DLzDOIBzloG8qF1-1">
          <mxGeometry relative="1" as="geometry" />
        </mxCell>
        <mxCell id="4xsE8DLzDOIBzloG8qF1-6" value="Email" style="ellipse;whiteSpace=wrap;html=1;align=center;fontStyle=4;" vertex="1" parent="1">
          <mxGeometry x="850" y="320" width="100" height="40" as="geometry" />
        </mxCell>
        <mxCell id="4xsE8DLzDOIBzloG8qF1-52" style="edgeStyle=orthogonalEdgeStyle;rounded=0;orthogonalLoop=1;jettySize=auto;html=1;entryX=0.25;entryY=0;entryDx=0;entryDy=0;" edge="1" parent="1" source="4xsE8DLzDOIBzloG8qF1-7" target="4xsE8DLzDOIBzloG8qF1-2">
          <mxGeometry relative="1" as="geometry" />
        </mxCell>
        <mxCell id="4xsE8DLzDOIBzloG8qF1-7" value="ID_Circuito" style="ellipse;whiteSpace=wrap;html=1;align=center;fontStyle=4;" vertex="1" parent="1">
          <mxGeometry x="614" width="100" height="40" as="geometry" />
        </mxCell>
        <mxCell id="4xsE8DLzDOIBzloG8qF1-36" style="edgeStyle=orthogonalEdgeStyle;rounded=0;orthogonalLoop=1;jettySize=auto;html=1;endArrow=none;endFill=0;exitX=0;exitY=0.5;exitDx=0;exitDy=0;" edge="1" parent="1" source="4xsE8DLzDOIBzloG8qF1-8" target="4xsE8DLzDOIBzloG8qF1-3">
          <mxGeometry relative="1" as="geometry" />
        </mxCell>
        <mxCell id="4xsE8DLzDOIBzloG8qF1-8" value="N° Teste" style="ellipse;whiteSpace=wrap;html=1;align=center;fontStyle=4;" vertex="1" parent="1">
          <mxGeometry x="140" y="-340" width="100" height="40" as="geometry" />
        </mxCell>
        <mxCell id="4xsE8DLzDOIBzloG8qF1-9" value="ID_logs" style="ellipse;whiteSpace=wrap;html=1;align=center;fontStyle=4;" vertex="1" parent="1">
          <mxGeometry x="-900" y="297.5" width="100" height="40" as="geometry" />
        </mxCell>
        <mxCell id="4xsE8DLzDOIBzloG8qF1-61" style="edgeStyle=orthogonalEdgeStyle;rounded=0;orthogonalLoop=1;jettySize=auto;html=1;entryX=0.5;entryY=0;entryDx=0;entryDy=0;" edge="1" parent="1" source="4xsE8DLzDOIBzloG8qF1-10" target="4xsE8DLzDOIBzloG8qF1-4">
          <mxGeometry relative="1" as="geometry" />
        </mxCell>
        <mxCell id="4xsE8DLzDOIBzloG8qF1-10" value="ID_Metodologia" style="ellipse;whiteSpace=wrap;html=1;align=center;fontStyle=4;" vertex="1" parent="1">
          <mxGeometry x="-350" y="385" width="100" height="40" as="geometry" />
        </mxCell>
        <mxCell id="4xsE8DLzDOIBzloG8qF1-21" style="edgeStyle=orthogonalEdgeStyle;rounded=0;orthogonalLoop=1;jettySize=auto;html=1;entryX=0.5;entryY=1;entryDx=0;entryDy=0;endArrow=none;endFill=0;" edge="1" parent="1" source="4xsE8DLzDOIBzloG8qF1-11" target="4xsE8DLzDOIBzloG8qF1-1">
          <mxGeometry relative="1" as="geometry" />
        </mxCell>
        <mxCell id="4xsE8DLzDOIBzloG8qF1-11" value="Senha" style="ellipse;whiteSpace=wrap;html=1;align=center;" vertex="1" parent="1">
          <mxGeometry x="960" y="510" width="100" height="40" as="geometry" />
        </mxCell>
        <mxCell id="4xsE8DLzDOIBzloG8qF1-23" style="edgeStyle=orthogonalEdgeStyle;rounded=0;orthogonalLoop=1;jettySize=auto;html=1;entryX=0.75;entryY=0;entryDx=0;entryDy=0;endArrow=none;endFill=0;" edge="1" parent="1" source="4xsE8DLzDOIBzloG8qF1-12" target="4xsE8DLzDOIBzloG8qF1-1">
          <mxGeometry relative="1" as="geometry" />
        </mxCell>
        <mxCell id="4xsE8DLzDOIBzloG8qF1-12" value="Nome" style="ellipse;whiteSpace=wrap;html=1;align=center;" vertex="1" parent="1">
          <mxGeometry x="1090" y="320" width="100" height="40" as="geometry" />
        </mxCell>
        <mxCell id="4xsE8DLzDOIBzloG8qF1-65" style="edgeStyle=orthogonalEdgeStyle;rounded=0;orthogonalLoop=1;jettySize=auto;html=1;entryX=0.75;entryY=1;entryDx=0;entryDy=0;" edge="1" parent="1" source="4xsE8DLzDOIBzloG8qF1-13" target="4xsE8DLzDOIBzloG8qF1-4">
          <mxGeometry relative="1" as="geometry" />
        </mxCell>
        <mxCell id="4xsE8DLzDOIBzloG8qF1-13" value="N° Voltas" style="ellipse;whiteSpace=wrap;html=1;align=center;" vertex="1" parent="1">
          <mxGeometry x="-340" y="535" width="100" height="40" as="geometry" />
        </mxCell>
        <mxCell id="4xsE8DLzDOIBzloG8qF1-55" style="edgeStyle=orthogonalEdgeStyle;rounded=0;orthogonalLoop=1;jettySize=auto;html=1;entryX=0.5;entryY=0;entryDx=0;entryDy=0;" edge="1" parent="1" source="4xsE8DLzDOIBzloG8qF1-14" target="4xsE8DLzDOIBzloG8qF1-2">
          <mxGeometry relative="1" as="geometry" />
        </mxCell>
        <mxCell id="4xsE8DLzDOIBzloG8qF1-14" value="Tempo Deslocamento" style="ellipse;whiteSpace=wrap;html=1;align=center;" vertex="1" parent="1">
          <mxGeometry x="690" y="-30" width="100" height="40" as="geometry" />
        </mxCell>
        <mxCell id="4xsE8DLzDOIBzloG8qF1-35" style="edgeStyle=orthogonalEdgeStyle;rounded=0;orthogonalLoop=1;jettySize=auto;html=1;entryX=0.25;entryY=0;entryDx=0;entryDy=0;endArrow=none;endFill=0;exitX=1;exitY=0.5;exitDx=0;exitDy=0;" edge="1" parent="1" source="4xsE8DLzDOIBzloG8qF1-15" target="4xsE8DLzDOIBzloG8qF1-3">
          <mxGeometry relative="1" as="geometry">
            <mxPoint x="110" y="-300" as="sourcePoint" />
          </mxGeometry>
        </mxCell>
        <mxCell id="4xsE8DLzDOIBzloG8qF1-15" value="Data" style="ellipse;whiteSpace=wrap;html=1;align=center;" vertex="1" parent="1">
          <mxGeometry y="-400" width="100" height="40" as="geometry" />
        </mxCell>
        <mxCell id="4xsE8DLzDOIBzloG8qF1-16" value="Temperatura oleo" style="ellipse;whiteSpace=wrap;html=1;align=center;" vertex="1" parent="1">
          <mxGeometry x="-690" y="52.5" width="100" height="40" as="geometry" />
        </mxCell>
        <mxCell id="4xsE8DLzDOIBzloG8qF1-20" style="edgeStyle=orthogonalEdgeStyle;rounded=0;orthogonalLoop=1;jettySize=auto;html=1;entryX=0.25;entryY=1;entryDx=0;entryDy=0;endArrow=none;endFill=0;" edge="1" parent="1" source="4xsE8DLzDOIBzloG8qF1-19" target="4xsE8DLzDOIBzloG8qF1-1">
          <mxGeometry relative="1" as="geometry" />
        </mxCell>
        <mxCell id="4xsE8DLzDOIBzloG8qF1-19" value="Subgrupo" style="ellipse;whiteSpace=wrap;html=1;align=center;" vertex="1" parent="1">
          <mxGeometry x="820" y="455" width="100" height="40" as="geometry" />
        </mxCell>
        <mxCell id="4xsE8DLzDOIBzloG8qF1-26" value="N° Voltas" style="ellipse;whiteSpace=wrap;html=1;align=center;" vertex="1" parent="1">
          <mxGeometry x="160" y="405" width="100" height="40" as="geometry" />
        </mxCell>
        <mxCell id="4xsE8DLzDOIBzloG8qF1-27" value="Pilotos" style="ellipse;whiteSpace=wrap;html=1;align=center;" vertex="1" parent="1">
          <mxGeometry x="170" y="307.5" width="100" height="40" as="geometry" />
        </mxCell>
        <mxCell id="4xsE8DLzDOIBzloG8qF1-37" style="edgeStyle=orthogonalEdgeStyle;rounded=0;orthogonalLoop=1;jettySize=auto;html=1;entryX=0.75;entryY=0;entryDx=0;entryDy=0;endArrow=none;endFill=0;exitX=0;exitY=0.5;exitDx=0;exitDy=0;" edge="1" parent="1" source="4xsE8DLzDOIBzloG8qF1-28" target="4xsE8DLzDOIBzloG8qF1-3">
          <mxGeometry relative="1" as="geometry" />
        </mxCell>
        <mxCell id="4xsE8DLzDOIBzloG8qF1-28" value="ID_circuito" style="ellipse;whiteSpace=wrap;html=1;align=center;" vertex="1" parent="1">
          <mxGeometry x="150" y="-440" width="100" height="40" as="geometry" />
        </mxCell>
        <mxCell id="4xsE8DLzDOIBzloG8qF1-30" value="Local" style="ellipse;whiteSpace=wrap;html=1;align=center;dashed=1;" vertex="1" parent="1">
          <mxGeometry x="110" y="505" width="100" height="40" as="geometry" />
        </mxCell>
        <mxCell id="4xsE8DLzDOIBzloG8qF1-31" value="Inicio" style="ellipse;whiteSpace=wrap;html=1;align=center;" vertex="1" parent="1">
          <mxGeometry x="10" y="-280" width="100" height="40" as="geometry" />
        </mxCell>
        <mxCell id="4xsE8DLzDOIBzloG8qF1-32" value="Fim" style="ellipse;whiteSpace=wrap;html=1;align=center;" vertex="1" parent="1">
          <mxGeometry x="125" y="450" width="100" height="40" as="geometry" />
        </mxCell>
        <mxCell id="4xsE8DLzDOIBzloG8qF1-42" style="edgeStyle=orthogonalEdgeStyle;rounded=0;orthogonalLoop=1;jettySize=auto;html=1;entryX=0.427;entryY=1.053;entryDx=0;entryDy=0;endArrow=none;endFill=0;exitX=0;exitY=0.5;exitDx=0;exitDy=0;entryPerimeter=0;" edge="1" parent="1" source="4xsE8DLzDOIBzloG8qF1-33" target="4xsE8DLzDOIBzloG8qF1-3">
          <mxGeometry relative="1" as="geometry" />
        </mxCell>
        <mxCell id="4xsE8DLzDOIBzloG8qF1-33" value="ID_Objetivos" style="ellipse;whiteSpace=wrap;html=1;align=center;" vertex="1" parent="1">
          <mxGeometry x="160" y="355" width="100" height="40" as="geometry" />
        </mxCell>
        <mxCell id="4xsE8DLzDOIBzloG8qF1-34" style="edgeStyle=orthogonalEdgeStyle;rounded=0;orthogonalLoop=1;jettySize=auto;html=1;entryX=0.084;entryY=-0.081;entryDx=0;entryDy=0;endArrow=none;endFill=0;entryPerimeter=0;" edge="1" parent="1" source="4xsE8DLzDOIBzloG8qF1-31" target="4xsE8DLzDOIBzloG8qF1-3">
          <mxGeometry relative="1" as="geometry" />
        </mxCell>
        <mxCell id="4xsE8DLzDOIBzloG8qF1-38" style="edgeStyle=orthogonalEdgeStyle;rounded=0;orthogonalLoop=1;jettySize=auto;html=1;entryX=0.097;entryY=0.975;entryDx=0;entryDy=0;entryPerimeter=0;endArrow=none;endFill=0;exitX=0;exitY=0.5;exitDx=0;exitDy=0;" edge="1" parent="1" source="4xsE8DLzDOIBzloG8qF1-30" target="4xsE8DLzDOIBzloG8qF1-3">
          <mxGeometry relative="1" as="geometry" />
        </mxCell>
        <mxCell id="4xsE8DLzDOIBzloG8qF1-39" style="edgeStyle=orthogonalEdgeStyle;rounded=0;orthogonalLoop=1;jettySize=auto;html=1;entryX=0.199;entryY=1.042;entryDx=0;entryDy=0;entryPerimeter=0;endArrow=none;endFill=0;exitX=0;exitY=0.5;exitDx=0;exitDy=0;" edge="1" parent="1" source="4xsE8DLzDOIBzloG8qF1-32" target="4xsE8DLzDOIBzloG8qF1-3">
          <mxGeometry relative="1" as="geometry" />
        </mxCell>
        <mxCell id="4xsE8DLzDOIBzloG8qF1-40" style="edgeStyle=orthogonalEdgeStyle;rounded=0;orthogonalLoop=1;jettySize=auto;html=1;entryX=0.301;entryY=1.053;entryDx=0;entryDy=0;entryPerimeter=0;endArrow=none;endFill=0;exitX=0;exitY=0.5;exitDx=0;exitDy=0;" edge="1" parent="1" source="4xsE8DLzDOIBzloG8qF1-26" target="4xsE8DLzDOIBzloG8qF1-3">
          <mxGeometry relative="1" as="geometry" />
        </mxCell>
        <mxCell id="4xsE8DLzDOIBzloG8qF1-41" style="edgeStyle=orthogonalEdgeStyle;rounded=0;orthogonalLoop=1;jettySize=auto;html=1;entryX=0.5;entryY=1;entryDx=0;entryDy=0;endArrow=none;endFill=0;exitX=0;exitY=0.5;exitDx=0;exitDy=0;" edge="1" parent="1" source="4xsE8DLzDOIBzloG8qF1-27" target="4xsE8DLzDOIBzloG8qF1-3">
          <mxGeometry relative="1" as="geometry" />
        </mxCell>
        <mxCell id="4xsE8DLzDOIBzloG8qF1-43" value="Almoço" style="ellipse;whiteSpace=wrap;html=1;align=center;" vertex="1" parent="1">
          <mxGeometry x="150" y="-280" width="100" height="40" as="geometry" />
        </mxCell>
        <mxCell id="4xsE8DLzDOIBzloG8qF1-44" style="edgeStyle=orthogonalEdgeStyle;rounded=0;orthogonalLoop=1;jettySize=auto;html=1;entryX=0.887;entryY=-0.011;entryDx=0;entryDy=0;entryPerimeter=0;endArrow=none;endFill=0;" edge="1" parent="1" source="4xsE8DLzDOIBzloG8qF1-43" target="4xsE8DLzDOIBzloG8qF1-3">
          <mxGeometry relative="1" as="geometry" />
        </mxCell>
        <mxCell id="4xsE8DLzDOIBzloG8qF1-56" style="edgeStyle=orthogonalEdgeStyle;rounded=0;orthogonalLoop=1;jettySize=auto;html=1;entryX=0.75;entryY=0;entryDx=0;entryDy=0;" edge="1" parent="1" source="4xsE8DLzDOIBzloG8qF1-45" target="4xsE8DLzDOIBzloG8qF1-2">
          <mxGeometry relative="1" as="geometry" />
        </mxCell>
        <mxCell id="4xsE8DLzDOIBzloG8qF1-45" value="Nome" style="ellipse;whiteSpace=wrap;html=1;align=center;" vertex="1" parent="1">
          <mxGeometry x="770" y="10" width="100" height="40" as="geometry" />
        </mxCell>
        <mxCell id="4xsE8DLzDOIBzloG8qF1-54" style="edgeStyle=orthogonalEdgeStyle;rounded=0;orthogonalLoop=1;jettySize=auto;html=1;entryX=0.75;entryY=1;entryDx=0;entryDy=0;" edge="1" parent="1" source="4xsE8DLzDOIBzloG8qF1-46" target="4xsE8DLzDOIBzloG8qF1-2">
          <mxGeometry relative="1" as="geometry" />
        </mxCell>
        <mxCell id="4xsE8DLzDOIBzloG8qF1-46" value="Local" style="ellipse;whiteSpace=wrap;html=1;align=center;" vertex="1" parent="1">
          <mxGeometry x="800" y="190" width="100" height="40" as="geometry" />
        </mxCell>
        <mxCell id="4xsE8DLzDOIBzloG8qF1-53" style="edgeStyle=orthogonalEdgeStyle;rounded=0;orthogonalLoop=1;jettySize=auto;html=1;entryX=0.5;entryY=1;entryDx=0;entryDy=0;" edge="1" parent="1" source="4xsE8DLzDOIBzloG8qF1-47" target="4xsE8DLzDOIBzloG8qF1-2">
          <mxGeometry relative="1" as="geometry" />
        </mxCell>
        <mxCell id="4xsE8DLzDOIBzloG8qF1-47" value="Cones" style="ellipse;whiteSpace=wrap;html=1;align=center;" vertex="1" parent="1">
          <mxGeometry x="660" y="220" width="100" height="40" as="geometry" />
        </mxCell>
        <mxCell id="4xsE8DLzDOIBzloG8qF1-51" style="edgeStyle=orthogonalEdgeStyle;rounded=0;orthogonalLoop=1;jettySize=auto;html=1;entryX=0.089;entryY=-0.006;entryDx=0;entryDy=0;entryPerimeter=0;" edge="1" parent="1" source="4xsE8DLzDOIBzloG8qF1-48" target="4xsE8DLzDOIBzloG8qF1-2">
          <mxGeometry relative="1" as="geometry" />
        </mxCell>
        <mxCell id="4xsE8DLzDOIBzloG8qF1-48" value="KM" style="ellipse;whiteSpace=wrap;html=1;align=center;" vertex="1" parent="1">
          <mxGeometry x="550" y="60" width="100" height="40" as="geometry" />
        </mxCell>
        <mxCell id="4xsE8DLzDOIBzloG8qF1-50" style="edgeStyle=orthogonalEdgeStyle;rounded=0;orthogonalLoop=1;jettySize=auto;html=1;entryX=0.25;entryY=1;entryDx=0;entryDy=0;" edge="1" parent="1" source="4xsE8DLzDOIBzloG8qF1-49" target="4xsE8DLzDOIBzloG8qF1-2">
          <mxGeometry relative="1" as="geometry" />
        </mxCell>
        <mxCell id="4xsE8DLzDOIBzloG8qF1-49" value="Curvas" style="ellipse;whiteSpace=wrap;html=1;align=center;" vertex="1" parent="1">
          <mxGeometry x="570" y="190" width="100" height="40" as="geometry" />
        </mxCell>
        <mxCell id="4xsE8DLzDOIBzloG8qF1-64" style="edgeStyle=orthogonalEdgeStyle;rounded=0;orthogonalLoop=1;jettySize=auto;html=1;entryX=0.5;entryY=1;entryDx=0;entryDy=0;" edge="1" parent="1" source="4xsE8DLzDOIBzloG8qF1-57" target="4xsE8DLzDOIBzloG8qF1-4">
          <mxGeometry relative="1" as="geometry" />
        </mxCell>
        <mxCell id="4xsE8DLzDOIBzloG8qF1-57" value="Procedimento" style="ellipse;whiteSpace=wrap;html=1;align=center;" vertex="1" parent="1">
          <mxGeometry x="-490" y="535" width="100" height="40" as="geometry" />
        </mxCell>
        <mxCell id="4xsE8DLzDOIBzloG8qF1-62" style="edgeStyle=orthogonalEdgeStyle;rounded=0;orthogonalLoop=1;jettySize=auto;html=1;entryX=0.25;entryY=0;entryDx=0;entryDy=0;" edge="1" parent="1" source="4xsE8DLzDOIBzloG8qF1-60" target="4xsE8DLzDOIBzloG8qF1-4">
          <mxGeometry relative="1" as="geometry" />
        </mxCell>
        <mxCell id="4xsE8DLzDOIBzloG8qF1-60" value="Objetivo" style="ellipse;whiteSpace=wrap;html=1;align=center;" vertex="1" parent="1">
          <mxGeometry x="-520" y="395" width="100" height="40" as="geometry" />
        </mxCell>
        <mxCell id="4xsE8DLzDOIBzloG8qF1-68" value="Time" style="ellipse;whiteSpace=wrap;html=1;align=center;" vertex="1" parent="1">
          <mxGeometry x="-620" y="2.5" width="100" height="40" as="geometry" />
        </mxCell>
        <mxCell id="4xsE8DLzDOIBzloG8qF1-69" value="RPM" style="ellipse;whiteSpace=wrap;html=1;align=center;" vertex="1" parent="1">
          <mxGeometry x="-490" y="255" width="100" height="40" as="geometry" />
        </mxCell>
        <mxCell id="4xsE8DLzDOIBzloG8qF1-70" value="Tensão_Bateria" style="ellipse;whiteSpace=wrap;html=1;align=center;" vertex="1" parent="1">
          <mxGeometry x="-1000" y="2.5" width="100" height="40" as="geometry" />
        </mxCell>
        <mxCell id="4xsE8DLzDOIBzloG8qF1-71" value="TPS" style="ellipse;whiteSpace=wrap;html=1;align=center;" vertex="1" parent="1">
          <mxGeometry x="-530" y="42.5" width="100" height="40" as="geometry" />
        </mxCell>
        <mxCell id="4xsE8DLzDOIBzloG8qF1-72" value="Temperatura AR" style="ellipse;whiteSpace=wrap;html=1;align=center;" vertex="1" parent="1">
          <mxGeometry x="-720" y="252.5" width="100" height="40" as="geometry" />
        </mxCell>
        <mxCell id="4xsE8DLzDOIBzloG8qF1-73" value="Pressão Oleo" style="ellipse;whiteSpace=wrap;html=1;align=center;" vertex="1" parent="1">
          <mxGeometry x="-840" y="242.5" width="100" height="40" as="geometry" />
        </mxCell>
        <mxCell id="4xsE8DLzDOIBzloG8qF1-100" style="edgeStyle=orthogonalEdgeStyle;rounded=0;orthogonalLoop=1;jettySize=auto;html=1;entryX=0.5;entryY=1;entryDx=0;entryDy=0;endArrow=none;endFill=0;" edge="1" parent="1" source="4xsE8DLzDOIBzloG8qF1-74" target="4xsE8DLzDOIBzloG8qF1-5">
          <mxGeometry relative="1" as="geometry" />
        </mxCell>
        <mxCell id="4xsE8DLzDOIBzloG8qF1-74" value="Sonda Geral" style="ellipse;whiteSpace=wrap;html=1;align=center;" vertex="1" parent="1">
          <mxGeometry x="-550" y="307.5" width="100" height="40" as="geometry" />
        </mxCell>
        <mxCell id="4xsE8DLzDOIBzloG8qF1-75" value="Temperatura Motor" style="ellipse;whiteSpace=wrap;html=1;align=center;" vertex="1" parent="1">
          <mxGeometry x="-665" y="307.5" width="100" height="40" as="geometry" />
        </mxCell>
        <mxCell id="4xsE8DLzDOIBzloG8qF1-76" value="Vazão de Bancada A" style="ellipse;whiteSpace=wrap;html=1;align=center;" vertex="1" parent="1">
          <mxGeometry x="-940" y="-47.5" width="100" height="40" as="geometry" />
        </mxCell>
        <mxCell id="4xsE8DLzDOIBzloG8qF1-77" value="Pressão Diferencial Combustivel" style="ellipse;whiteSpace=wrap;html=1;align=center;" vertex="1" parent="1">
          <mxGeometry x="-610" y="252.5" width="100" height="45" as="geometry" />
        </mxCell>
        <mxCell id="4xsE8DLzDOIBzloG8qF1-78" value="Pressão Freio" style="ellipse;whiteSpace=wrap;html=1;align=center;" vertex="1" parent="1">
          <mxGeometry x="-420" y="307.5" width="100" height="40" as="geometry" />
        </mxCell>
        <mxCell id="4xsE8DLzDOIBzloG8qF1-79" value="Velo RTE" style="ellipse;whiteSpace=wrap;html=1;align=center;" vertex="1" parent="1">
          <mxGeometry x="-680" y="-47.5" width="100" height="40" as="geometry" />
        </mxCell>
        <mxCell id="4xsE8DLzDOIBzloG8qF1-80" value="WPS" style="ellipse;whiteSpace=wrap;html=1;align=center;" vertex="1" parent="1">
          <mxGeometry x="-810" y="-87.5" width="100" height="40" as="geometry" />
        </mxCell>
        <mxCell id="4xsE8DLzDOIBzloG8qF1-105" style="edgeStyle=orthogonalEdgeStyle;rounded=0;orthogonalLoop=1;jettySize=auto;html=1;entryX=0.75;entryY=0;entryDx=0;entryDy=0;endArrow=none;endFill=0;" edge="1" parent="1" source="4xsE8DLzDOIBzloG8qF1-81" target="4xsE8DLzDOIBzloG8qF1-5">
          <mxGeometry relative="1" as="geometry" />
        </mxCell>
        <mxCell id="4xsE8DLzDOIBzloG8qF1-81" value="Pressão Embreagem" style="ellipse;whiteSpace=wrap;html=1;align=center;" vertex="1" parent="1">
          <mxGeometry x="-565" y="-57.5" width="100" height="40" as="geometry" />
        </mxCell>
        <mxCell id="4xsE8DLzDOIBzloG8qF1-82" value="Velo RFD" style="ellipse;whiteSpace=wrap;html=1;align=center;" vertex="1" parent="1">
          <mxGeometry x="-1060" y="62.5" width="100" height="40" as="geometry" />
        </mxCell>
        <mxCell id="4xsE8DLzDOIBzloG8qF1-83" value="Velo RFE" style="ellipse;whiteSpace=wrap;html=1;align=center;" vertex="1" parent="1">
          <mxGeometry x="-1030" y="297.5" width="100" height="40" as="geometry" />
        </mxCell>
        <mxCell id="4xsE8DLzDOIBzloG8qF1-84" value="Marcha" style="ellipse;whiteSpace=wrap;html=1;align=center;" vertex="1" parent="1">
          <mxGeometry x="-780" y="295" width="100" height="40" as="geometry" />
        </mxCell>
        <mxCell id="4xsE8DLzDOIBzloG8qF1-85" value="Força G Long" style="ellipse;whiteSpace=wrap;html=1;align=center;" vertex="1" parent="1">
          <mxGeometry x="-800" y="42.5" width="100" height="40" as="geometry" />
        </mxCell>
        <mxCell id="4xsE8DLzDOIBzloG8qF1-86" value="Força G Lateral" style="ellipse;whiteSpace=wrap;html=1;align=center;" vertex="1" parent="1">
          <mxGeometry x="-970" y="242.5" width="100" height="40" as="geometry" />
        </mxCell>
        <mxCell id="4xsE8DLzDOIBzloG8qF1-87" value="Amortecedor DE" style="ellipse;whiteSpace=wrap;html=1;align=center;" vertex="1" parent="1">
          <mxGeometry x="-880" y="-7.5" width="100" height="40" as="geometry" />
        </mxCell>
        <mxCell id="4xsE8DLzDOIBzloG8qF1-88" value="Amortecedor TE" style="ellipse;whiteSpace=wrap;html=1;align=center;" vertex="1" parent="1">
          <mxGeometry x="-740" y="-7.5" width="100" height="40" as="geometry" />
        </mxCell>
        <mxCell id="4xsE8DLzDOIBzloG8qF1-89" value="ID_Teste" style="ellipse;whiteSpace=wrap;html=1;align=center;" vertex="1" parent="1">
          <mxGeometry x="-470" y="2.5" width="100" height="40" as="geometry" />
        </mxCell>
        <mxCell id="4xsE8DLzDOIBzloG8qF1-92" style="edgeStyle=orthogonalEdgeStyle;rounded=0;orthogonalLoop=1;jettySize=auto;html=1;entryX=0.088;entryY=0.969;entryDx=0;entryDy=0;entryPerimeter=0;endArrow=none;endFill=0;" edge="1" parent="1" source="4xsE8DLzDOIBzloG8qF1-83" target="4xsE8DLzDOIBzloG8qF1-5">
          <mxGeometry relative="1" as="geometry" />
        </mxCell>
        <mxCell id="4xsE8DLzDOIBzloG8qF1-93" style="edgeStyle=orthogonalEdgeStyle;rounded=0;orthogonalLoop=1;jettySize=auto;html=1;entryX=0.051;entryY=1.036;entryDx=0;entryDy=0;entryPerimeter=0;endArrow=none;endFill=0;" edge="1" parent="1" source="4xsE8DLzDOIBzloG8qF1-86" target="4xsE8DLzDOIBzloG8qF1-5">
          <mxGeometry relative="1" as="geometry" />
        </mxCell>
        <mxCell id="4xsE8DLzDOIBzloG8qF1-94" style="edgeStyle=orthogonalEdgeStyle;rounded=0;orthogonalLoop=1;jettySize=auto;html=1;entryX=0.128;entryY=1.047;entryDx=0;entryDy=0;entryPerimeter=0;endArrow=none;endFill=0;" edge="1" parent="1" source="4xsE8DLzDOIBzloG8qF1-9" target="4xsE8DLzDOIBzloG8qF1-5">
          <mxGeometry relative="1" as="geometry" />
        </mxCell>
        <mxCell id="4xsE8DLzDOIBzloG8qF1-95" style="edgeStyle=orthogonalEdgeStyle;rounded=0;orthogonalLoop=1;jettySize=auto;html=1;entryX=0.172;entryY=1.003;entryDx=0;entryDy=0;entryPerimeter=0;endArrow=none;endFill=0;" edge="1" parent="1" source="4xsE8DLzDOIBzloG8qF1-73" target="4xsE8DLzDOIBzloG8qF1-5">
          <mxGeometry relative="1" as="geometry" />
        </mxCell>
        <mxCell id="4xsE8DLzDOIBzloG8qF1-96" style="edgeStyle=orthogonalEdgeStyle;rounded=0;orthogonalLoop=1;jettySize=auto;html=1;entryX=0.226;entryY=1.081;entryDx=0;entryDy=0;entryPerimeter=0;endArrow=none;endFill=0;" edge="1" parent="1" source="4xsE8DLzDOIBzloG8qF1-84" target="4xsE8DLzDOIBzloG8qF1-5">
          <mxGeometry relative="1" as="geometry" />
        </mxCell>
        <mxCell id="4xsE8DLzDOIBzloG8qF1-97" style="edgeStyle=orthogonalEdgeStyle;rounded=0;orthogonalLoop=1;jettySize=auto;html=1;entryX=0.293;entryY=1.069;entryDx=0;entryDy=0;entryPerimeter=0;endArrow=none;endFill=0;" edge="1" parent="1" source="4xsE8DLzDOIBzloG8qF1-72" target="4xsE8DLzDOIBzloG8qF1-5">
          <mxGeometry relative="1" as="geometry" />
        </mxCell>
        <mxCell id="4xsE8DLzDOIBzloG8qF1-98" style="edgeStyle=orthogonalEdgeStyle;rounded=0;orthogonalLoop=1;jettySize=auto;html=1;entryX=0.373;entryY=0.992;entryDx=0;entryDy=0;entryPerimeter=0;endArrow=none;endFill=0;" edge="1" parent="1" source="4xsE8DLzDOIBzloG8qF1-75" target="4xsE8DLzDOIBzloG8qF1-5">
          <mxGeometry relative="1" as="geometry" />
        </mxCell>
        <mxCell id="4xsE8DLzDOIBzloG8qF1-99" style="edgeStyle=orthogonalEdgeStyle;rounded=0;orthogonalLoop=1;jettySize=auto;html=1;entryX=0.437;entryY=1.036;entryDx=0;entryDy=0;entryPerimeter=0;endArrow=none;endFill=0;" edge="1" parent="1" source="4xsE8DLzDOIBzloG8qF1-77" target="4xsE8DLzDOIBzloG8qF1-5">
          <mxGeometry relative="1" as="geometry" />
        </mxCell>
        <mxCell id="4xsE8DLzDOIBzloG8qF1-101" style="edgeStyle=orthogonalEdgeStyle;rounded=0;orthogonalLoop=1;jettySize=auto;html=1;entryX=0.583;entryY=1.036;entryDx=0;entryDy=0;entryPerimeter=0;endArrow=none;endFill=0;" edge="1" parent="1" source="4xsE8DLzDOIBzloG8qF1-69" target="4xsE8DLzDOIBzloG8qF1-5">
          <mxGeometry relative="1" as="geometry" />
        </mxCell>
        <mxCell id="4xsE8DLzDOIBzloG8qF1-102" style="edgeStyle=orthogonalEdgeStyle;rounded=0;orthogonalLoop=1;jettySize=auto;html=1;entryX=0.724;entryY=1.058;entryDx=0;entryDy=0;entryPerimeter=0;endArrow=none;endFill=0;" edge="1" parent="1" source="4xsE8DLzDOIBzloG8qF1-78" target="4xsE8DLzDOIBzloG8qF1-5">
          <mxGeometry relative="1" as="geometry" />
        </mxCell>
        <mxCell id="4xsE8DLzDOIBzloG8qF1-103" style="edgeStyle=orthogonalEdgeStyle;rounded=0;orthogonalLoop=1;jettySize=auto;html=1;entryX=0.979;entryY=0.058;entryDx=0;entryDy=0;entryPerimeter=0;endArrow=none;endFill=0;" edge="1" parent="1" source="4xsE8DLzDOIBzloG8qF1-89" target="4xsE8DLzDOIBzloG8qF1-5">
          <mxGeometry relative="1" as="geometry" />
        </mxCell>
        <mxCell id="4xsE8DLzDOIBzloG8qF1-106" style="edgeStyle=orthogonalEdgeStyle;rounded=0;orthogonalLoop=1;jettySize=auto;html=1;entryX=0.709;entryY=-0.031;entryDx=0;entryDy=0;entryPerimeter=0;endArrow=none;endFill=0;" edge="1" parent="1" source="4xsE8DLzDOIBzloG8qF1-68" target="4xsE8DLzDOIBzloG8qF1-5">
          <mxGeometry relative="1" as="geometry" />
        </mxCell>
        <mxCell id="4xsE8DLzDOIBzloG8qF1-108" style="edgeStyle=orthogonalEdgeStyle;rounded=0;orthogonalLoop=1;jettySize=auto;html=1;entryX=0.664;entryY=-0.064;entryDx=0;entryDy=0;entryPerimeter=0;endArrow=none;endFill=0;" edge="1" parent="1" source="4xsE8DLzDOIBzloG8qF1-79" target="4xsE8DLzDOIBzloG8qF1-5">
          <mxGeometry relative="1" as="geometry" />
        </mxCell>
        <mxCell id="4xsE8DLzDOIBzloG8qF1-110" style="edgeStyle=orthogonalEdgeStyle;rounded=0;orthogonalLoop=1;jettySize=auto;html=1;entryX=0.236;entryY=0.058;entryDx=0;entryDy=0;entryPerimeter=0;endArrow=none;endFill=0;exitX=0.5;exitY=1;exitDx=0;exitDy=0;" edge="1" parent="1" source="4xsE8DLzDOIBzloG8qF1-80" target="4xsE8DLzDOIBzloG8qF1-5">
          <mxGeometry relative="1" as="geometry">
            <mxPoint x="-760" y="-37.5" as="sourcePoint" />
          </mxGeometry>
        </mxCell>
        <mxCell id="4xsE8DLzDOIBzloG8qF1-111" style="edgeStyle=orthogonalEdgeStyle;rounded=0;orthogonalLoop=1;jettySize=auto;html=1;entryX=0.331;entryY=0.069;entryDx=0;entryDy=0;entryPerimeter=0;endArrow=none;endFill=0;" edge="1" parent="1" source="4xsE8DLzDOIBzloG8qF1-85" target="4xsE8DLzDOIBzloG8qF1-5">
          <mxGeometry relative="1" as="geometry" />
        </mxCell>
        <mxCell id="4xsE8DLzDOIBzloG8qF1-112" style="edgeStyle=orthogonalEdgeStyle;rounded=0;orthogonalLoop=1;jettySize=auto;html=1;entryX=0.184;entryY=-0.031;entryDx=0;entryDy=0;entryPerimeter=0;endArrow=none;endFill=0;" edge="1" parent="1" source="4xsE8DLzDOIBzloG8qF1-87" target="4xsE8DLzDOIBzloG8qF1-5">
          <mxGeometry relative="1" as="geometry" />
        </mxCell>
        <mxCell id="4xsE8DLzDOIBzloG8qF1-113" style="edgeStyle=orthogonalEdgeStyle;rounded=0;orthogonalLoop=1;jettySize=auto;html=1;entryX=0.147;entryY=-0.008;entryDx=0;entryDy=0;entryPerimeter=0;endArrow=none;endFill=0;" edge="1" parent="1" source="4xsE8DLzDOIBzloG8qF1-76" target="4xsE8DLzDOIBzloG8qF1-5">
          <mxGeometry relative="1" as="geometry" />
        </mxCell>
        <mxCell id="4xsE8DLzDOIBzloG8qF1-114" style="edgeStyle=orthogonalEdgeStyle;rounded=0;orthogonalLoop=1;jettySize=auto;html=1;entryX=0.108;entryY=0.014;entryDx=0;entryDy=0;entryPerimeter=0;endArrow=none;endFill=0;" edge="1" parent="1" source="4xsE8DLzDOIBzloG8qF1-70" target="4xsE8DLzDOIBzloG8qF1-5">
          <mxGeometry relative="1" as="geometry" />
        </mxCell>
        <mxCell id="4xsE8DLzDOIBzloG8qF1-115" style="edgeStyle=orthogonalEdgeStyle;rounded=0;orthogonalLoop=1;jettySize=auto;html=1;entryX=0.022;entryY=0.003;entryDx=0;entryDy=0;entryPerimeter=0;endArrow=none;endFill=0;" edge="1" parent="1" source="4xsE8DLzDOIBzloG8qF1-82" target="4xsE8DLzDOIBzloG8qF1-5">
          <mxGeometry relative="1" as="geometry" />
        </mxCell>
        <mxCell id="4xsE8DLzDOIBzloG8qF1-116" style="edgeStyle=orthogonalEdgeStyle;rounded=0;orthogonalLoop=1;jettySize=auto;html=1;entryX=0.56;entryY=0.025;entryDx=0;entryDy=0;entryPerimeter=0;endArrow=none;endFill=0;" edge="1" parent="1" source="4xsE8DLzDOIBzloG8qF1-16" target="4xsE8DLzDOIBzloG8qF1-5">
          <mxGeometry relative="1" as="geometry" />
        </mxCell>
        <mxCell id="4xsE8DLzDOIBzloG8qF1-117" style="edgeStyle=orthogonalEdgeStyle;rounded=0;orthogonalLoop=1;jettySize=auto;html=1;entryX=0.873;entryY=0.058;entryDx=0;entryDy=0;entryPerimeter=0;endArrow=none;endFill=0;" edge="1" parent="1" source="4xsE8DLzDOIBzloG8qF1-71" target="4xsE8DLzDOIBzloG8qF1-5">
          <mxGeometry relative="1" as="geometry" />
        </mxCell>
        <mxCell id="4xsE8DLzDOIBzloG8qF1-118" style="edgeStyle=orthogonalEdgeStyle;rounded=0;orthogonalLoop=1;jettySize=auto;html=1;entryX=0.464;entryY=-0.031;entryDx=0;entryDy=0;entryPerimeter=0;endArrow=none;endFill=0;" edge="1" parent="1" source="4xsE8DLzDOIBzloG8qF1-88" target="4xsE8DLzDOIBzloG8qF1-5">
          <mxGeometry relative="1" as="geometry" />
        </mxCell>
        <mxCell id="4xsE8DLzDOIBzloG8qF1-120" style="edgeStyle=orthogonalEdgeStyle;rounded=0;orthogonalLoop=1;jettySize=auto;html=1;entryX=1;entryY=0.75;entryDx=0;entryDy=0;endArrow=none;endFill=0;" edge="1" parent="1" source="4xsE8DLzDOIBzloG8qF1-119" target="4xsE8DLzDOIBzloG8qF1-3">
          <mxGeometry relative="1" as="geometry" />
        </mxCell>
        <mxCell id="4xsE8DLzDOIBzloG8qF1-121" style="edgeStyle=orthogonalEdgeStyle;rounded=0;orthogonalLoop=1;jettySize=auto;html=1;entryX=0;entryY=0.5;entryDx=0;entryDy=0;endArrow=none;endFill=0;" edge="1" parent="1" source="4xsE8DLzDOIBzloG8qF1-119" target="4xsE8DLzDOIBzloG8qF1-2">
          <mxGeometry relative="1" as="geometry" />
        </mxCell>
        <mxCell id="4xsE8DLzDOIBzloG8qF1-119" value="Possui" style="shape=rhombus;perimeter=rhombusPerimeter;whiteSpace=wrap;html=1;align=center;" vertex="1" parent="1">
          <mxGeometry x="354" y="100" width="120" height="60" as="geometry" />
        </mxCell>
        <mxCell id="4xsE8DLzDOIBzloG8qF1-141" style="edgeStyle=orthogonalEdgeStyle;rounded=0;orthogonalLoop=1;jettySize=auto;html=1;" edge="1" parent="1" source="4xsE8DLzDOIBzloG8qF1-122">
          <mxGeometry relative="1" as="geometry">
            <mxPoint x="180" y="150" as="targetPoint" />
            <Array as="points">
              <mxPoint x="230" y="253" />
              <mxPoint x="230" y="150" />
              <mxPoint x="180" y="150" />
            </Array>
          </mxGeometry>
        </mxCell>
        <mxCell id="4xsE8DLzDOIBzloG8qF1-142" style="edgeStyle=orthogonalEdgeStyle;rounded=0;orthogonalLoop=1;jettySize=auto;html=1;entryX=0;entryY=0.5;entryDx=0;entryDy=0;" edge="1" parent="1" source="4xsE8DLzDOIBzloG8qF1-122" target="4xsE8DLzDOIBzloG8qF1-130">
          <mxGeometry relative="1" as="geometry" />
        </mxCell>
        <mxCell id="4xsE8DLzDOIBzloG8qF1-122" value="Participa" style="shape=rhombus;perimeter=rhombusPerimeter;whiteSpace=wrap;html=1;align=center;" vertex="1" parent="1">
          <mxGeometry x="310" y="222.5" width="120" height="60" as="geometry" />
        </mxCell>
        <mxCell id="4xsE8DLzDOIBzloG8qF1-126" style="edgeStyle=orthogonalEdgeStyle;rounded=0;orthogonalLoop=1;jettySize=auto;html=1;entryX=0;entryY=0.75;entryDx=0;entryDy=0;endArrow=none;endFill=0;" edge="1" parent="1" source="4xsE8DLzDOIBzloG8qF1-123" target="4xsE8DLzDOIBzloG8qF1-3">
          <mxGeometry relative="1" as="geometry" />
        </mxCell>
        <mxCell id="4xsE8DLzDOIBzloG8qF1-123" value="Produz" style="shape=rhombus;perimeter=rhombusPerimeter;whiteSpace=wrap;html=1;align=center;" vertex="1" parent="1">
          <mxGeometry x="-220" y="102.5" width="120" height="60" as="geometry" />
        </mxCell>
        <mxCell id="4xsE8DLzDOIBzloG8qF1-128" style="edgeStyle=orthogonalEdgeStyle;rounded=0;orthogonalLoop=1;jettySize=auto;html=1;entryX=-0.013;entryY=0.892;entryDx=0;entryDy=0;endArrow=none;endFill=0;entryPerimeter=0;" edge="1" parent="1" source="4xsE8DLzDOIBzloG8qF1-127" target="4xsE8DLzDOIBzloG8qF1-3">
          <mxGeometry relative="1" as="geometry">
            <Array as="points">
              <mxPoint x="50" y="475" />
              <mxPoint x="50" y="146" />
            </Array>
          </mxGeometry>
        </mxCell>
        <mxCell id="4xsE8DLzDOIBzloG8qF1-129" style="edgeStyle=orthogonalEdgeStyle;rounded=0;orthogonalLoop=1;jettySize=auto;html=1;entryX=1;entryY=0.5;entryDx=0;entryDy=0;endArrow=none;endFill=0;" edge="1" parent="1" source="4xsE8DLzDOIBzloG8qF1-127" target="4xsE8DLzDOIBzloG8qF1-4">
          <mxGeometry relative="1" as="geometry" />
        </mxCell>
        <mxCell id="4xsE8DLzDOIBzloG8qF1-127" value="Possui" style="shape=rhombus;perimeter=rhombusPerimeter;whiteSpace=wrap;html=1;align=center;" vertex="1" parent="1">
          <mxGeometry x="-160" y="445" width="120" height="60" as="geometry" />
        </mxCell>
        <mxCell id="4xsE8DLzDOIBzloG8qF1-130" value="Presença" style="whiteSpace=wrap;html=1;align=center;" vertex="1" parent="1">
          <mxGeometry x="509" y="385" width="100" height="40" as="geometry" />
        </mxCell>
        <mxCell id="4xsE8DLzDOIBzloG8qF1-139" style="edgeStyle=orthogonalEdgeStyle;rounded=0;orthogonalLoop=1;jettySize=auto;html=1;entryX=0.25;entryY=0;entryDx=0;entryDy=0;" edge="1" parent="1" source="4xsE8DLzDOIBzloG8qF1-131" target="4xsE8DLzDOIBzloG8qF1-130">
          <mxGeometry relative="1" as="geometry" />
        </mxCell>
        <mxCell id="4xsE8DLzDOIBzloG8qF1-131" value="ID_Presença" style="ellipse;whiteSpace=wrap;html=1;align=center;fontStyle=4;" vertex="1" parent="1">
          <mxGeometry x="480" y="267.5" width="100" height="40" as="geometry" />
        </mxCell>
        <mxCell id="4xsE8DLzDOIBzloG8qF1-140" style="edgeStyle=orthogonalEdgeStyle;rounded=0;orthogonalLoop=1;jettySize=auto;html=1;entryX=0.5;entryY=0;entryDx=0;entryDy=0;" edge="1" parent="1" source="4xsE8DLzDOIBzloG8qF1-132" target="4xsE8DLzDOIBzloG8qF1-130">
          <mxGeometry relative="1" as="geometry" />
        </mxCell>
        <mxCell id="4xsE8DLzDOIBzloG8qF1-132" value="Inicio" style="ellipse;whiteSpace=wrap;html=1;align=center;" vertex="1" parent="1">
          <mxGeometry x="574" y="315" width="100" height="40" as="geometry" />
        </mxCell>
        <mxCell id="4xsE8DLzDOIBzloG8qF1-133" value="Fim" style="ellipse;whiteSpace=wrap;html=1;align=center;" vertex="1" parent="1">
          <mxGeometry x="604" y="465" width="100" height="40" as="geometry" />
        </mxCell>
        <mxCell id="4xsE8DLzDOIBzloG8qF1-134" value="Função" style="ellipse;whiteSpace=wrap;html=1;align=center;" vertex="1" parent="1">
          <mxGeometry x="494" y="465" width="100" height="40" as="geometry" />
        </mxCell>
        <mxCell id="4xsE8DLzDOIBzloG8qF1-136" style="edgeStyle=orthogonalEdgeStyle;rounded=0;orthogonalLoop=1;jettySize=auto;html=1;entryX=0.25;entryY=1;entryDx=0;entryDy=0;" edge="1" parent="1" source="4xsE8DLzDOIBzloG8qF1-135" target="4xsE8DLzDOIBzloG8qF1-130">
          <mxGeometry relative="1" as="geometry" />
        </mxCell>
        <mxCell id="4xsE8DLzDOIBzloG8qF1-135" value="ID_Membro" style="ellipse;whiteSpace=wrap;html=1;align=center;" vertex="1" parent="1">
          <mxGeometry x="380" y="440" width="100" height="40" as="geometry" />
        </mxCell>
        <mxCell id="4xsE8DLzDOIBzloG8qF1-137" style="edgeStyle=orthogonalEdgeStyle;rounded=0;orthogonalLoop=1;jettySize=auto;html=1;entryX=0.413;entryY=1.039;entryDx=0;entryDy=0;entryPerimeter=0;" edge="1" parent="1" source="4xsE8DLzDOIBzloG8qF1-134" target="4xsE8DLzDOIBzloG8qF1-130">
          <mxGeometry relative="1" as="geometry" />
        </mxCell>
        <mxCell id="4xsE8DLzDOIBzloG8qF1-138" style="edgeStyle=orthogonalEdgeStyle;rounded=0;orthogonalLoop=1;jettySize=auto;html=1;entryX=0.564;entryY=1.028;entryDx=0;entryDy=0;entryPerimeter=0;" edge="1" parent="1" source="4xsE8DLzDOIBzloG8qF1-133" target="4xsE8DLzDOIBzloG8qF1-130">
          <mxGeometry relative="1" as="geometry" />
        </mxCell>
        <mxCell id="4xsE8DLzDOIBzloG8qF1-144" style="edgeStyle=orthogonalEdgeStyle;rounded=0;orthogonalLoop=1;jettySize=auto;html=1;entryX=1;entryY=0.5;entryDx=0;entryDy=0;" edge="1" parent="1" source="4xsE8DLzDOIBzloG8qF1-143" target="4xsE8DLzDOIBzloG8qF1-130">
          <mxGeometry relative="1" as="geometry" />
        </mxCell>
        <mxCell id="4xsE8DLzDOIBzloG8qF1-145" style="edgeStyle=orthogonalEdgeStyle;rounded=0;orthogonalLoop=1;jettySize=auto;html=1;entryX=0;entryY=0.5;entryDx=0;entryDy=0;" edge="1" parent="1" source="4xsE8DLzDOIBzloG8qF1-143" target="4xsE8DLzDOIBzloG8qF1-1">
          <mxGeometry relative="1" as="geometry" />
        </mxCell>
        <mxCell id="4xsE8DLzDOIBzloG8qF1-143" value="Composta" style="shape=rhombus;perimeter=rhombusPerimeter;whiteSpace=wrap;html=1;align=center;" vertex="1" parent="1">
          <mxGeometry x="704" y="375" width="120" height="60" as="geometry" />
        </mxCell>
        <mxCell id="4xsE8DLzDOIBzloG8qF1-173" style="edgeStyle=orthogonalEdgeStyle;rounded=0;orthogonalLoop=1;jettySize=auto;html=1;entryX=0;entryY=0.5;entryDx=0;entryDy=0;" edge="1" parent="1" source="4xsE8DLzDOIBzloG8qF1-146" target="4xsE8DLzDOIBzloG8qF1-156">
          <mxGeometry relative="1" as="geometry" />
        </mxCell>
        <mxCell id="4xsE8DLzDOIBzloG8qF1-146" value="Aerodinâmica" style="rounded=1;arcSize=10;whiteSpace=wrap;html=1;align=center;" vertex="1" parent="1">
          <mxGeometry x="-230" y="-330" width="100" height="40" as="geometry" />
        </mxCell>
        <mxCell id="4xsE8DLzDOIBzloG8qF1-147" value="Chassi" style="rounded=1;arcSize=10;whiteSpace=wrap;html=1;align=center;" vertex="1" parent="1">
          <mxGeometry x="400" y="-400" width="100" height="40" as="geometry" />
        </mxCell>
        <mxCell id="4xsE8DLzDOIBzloG8qF1-174" style="edgeStyle=orthogonalEdgeStyle;rounded=0;orthogonalLoop=1;jettySize=auto;html=1;entryX=0;entryY=0.5;entryDx=0;entryDy=0;" edge="1" parent="1" source="4xsE8DLzDOIBzloG8qF1-148" target="4xsE8DLzDOIBzloG8qF1-155">
          <mxGeometry relative="1" as="geometry" />
        </mxCell>
        <mxCell id="4xsE8DLzDOIBzloG8qF1-148" value="Dinâmica" style="rounded=1;arcSize=10;whiteSpace=wrap;html=1;align=center;" vertex="1" parent="1">
          <mxGeometry x="-330" y="-260" width="100" height="40" as="geometry" />
        </mxCell>
        <mxCell id="4xsE8DLzDOIBzloG8qF1-149" value="Freio" style="whiteSpace=wrap;html=1;align=center;" vertex="1" parent="1">
          <mxGeometry x="504" y="-320" width="100" height="40" as="geometry" />
        </mxCell>
        <mxCell id="4xsE8DLzDOIBzloG8qF1-175" style="edgeStyle=orthogonalEdgeStyle;rounded=0;orthogonalLoop=1;jettySize=auto;html=1;entryX=0;entryY=0.5;entryDx=0;entryDy=0;" edge="1" parent="1" source="4xsE8DLzDOIBzloG8qF1-150" target="4xsE8DLzDOIBzloG8qF1-154">
          <mxGeometry relative="1" as="geometry" />
        </mxCell>
        <mxCell id="4xsE8DLzDOIBzloG8qF1-150" value="Motor" style="rounded=1;arcSize=10;whiteSpace=wrap;html=1;align=center;" vertex="1" parent="1">
          <mxGeometry x="-463" y="-180" width="100" height="40" as="geometry" />
        </mxCell>
        <mxCell id="4xsE8DLzDOIBzloG8qF1-151" value="Transmissão" style="rounded=1;arcSize=10;whiteSpace=wrap;html=1;align=center;" vertex="1" parent="1">
          <mxGeometry x="640" y="-240" width="100" height="40" as="geometry" />
        </mxCell>
        <mxCell id="4xsE8DLzDOIBzloG8qF1-153" value="Sensores" style="whiteSpace=wrap;html=1;align=center;" vertex="1" parent="1">
          <mxGeometry x="-60" y="-560" width="100" height="40" as="geometry" />
        </mxCell>
        <mxCell id="4xsE8DLzDOIBzloG8qF1-166" style="edgeStyle=orthogonalEdgeStyle;rounded=0;orthogonalLoop=1;jettySize=auto;html=1;entryX=0;entryY=0.25;entryDx=0;entryDy=0;" edge="1" parent="1" source="4xsE8DLzDOIBzloG8qF1-154" target="4xsE8DLzDOIBzloG8qF1-3">
          <mxGeometry relative="1" as="geometry" />
        </mxCell>
        <mxCell id="4xsE8DLzDOIBzloG8qF1-154" value="&lt;p data-pm-slice=&quot;1 1 []&quot;&gt;Aplica Setup&amp;nbsp;&lt;/p&gt;" style="shape=rhombus;perimeter=rhombusPerimeter;whiteSpace=wrap;html=1;align=center;" vertex="1" parent="1">
          <mxGeometry x="-310" y="-10" width="120" height="60" as="geometry" />
        </mxCell>
        <mxCell id="4xsE8DLzDOIBzloG8qF1-155" value="&lt;p data-pm-slice=&quot;1 1 []&quot;&gt;Aplica Setup&amp;nbsp;&lt;/p&gt;" style="shape=rhombus;perimeter=rhombusPerimeter;whiteSpace=wrap;html=1;align=center;" vertex="1" parent="1">
          <mxGeometry x="-230" y="-77.5" width="120" height="60" as="geometry" />
        </mxCell>
        <mxCell id="4xsE8DLzDOIBzloG8qF1-164" style="edgeStyle=orthogonalEdgeStyle;rounded=0;orthogonalLoop=1;jettySize=auto;html=1;entryX=0;entryY=0.5;entryDx=0;entryDy=0;" edge="1" parent="1" source="4xsE8DLzDOIBzloG8qF1-156" target="4xsE8DLzDOIBzloG8qF1-3">
          <mxGeometry relative="1" as="geometry" />
        </mxCell>
        <mxCell id="4xsE8DLzDOIBzloG8qF1-156" value="&lt;p data-pm-slice=&quot;1 1 []&quot;&gt;Aplica Setup&amp;nbsp;&lt;/p&gt;" style="shape=rhombus;perimeter=rhombusPerimeter;whiteSpace=wrap;html=1;align=center;" vertex="1" parent="1">
          <mxGeometry x="-150" y="-157.5" width="120" height="60" as="geometry" />
        </mxCell>
        <mxCell id="4xsE8DLzDOIBzloG8qF1-169" style="edgeStyle=orthogonalEdgeStyle;rounded=0;orthogonalLoop=1;jettySize=auto;html=1;entryX=0.5;entryY=1;entryDx=0;entryDy=0;" edge="1" parent="1" source="4xsE8DLzDOIBzloG8qF1-157" target="4xsE8DLzDOIBzloG8qF1-147">
          <mxGeometry relative="1" as="geometry" />
        </mxCell>
        <mxCell id="4xsE8DLzDOIBzloG8qF1-157" value="&lt;p data-pm-slice=&quot;1 1 []&quot;&gt;Aplica Setup&amp;nbsp;&lt;/p&gt;" style="shape=rhombus;perimeter=rhombusPerimeter;whiteSpace=wrap;html=1;align=center;" vertex="1" parent="1">
          <mxGeometry x="270" y="-260" width="120" height="60" as="geometry" />
        </mxCell>
        <mxCell id="4xsE8DLzDOIBzloG8qF1-162" style="edgeStyle=orthogonalEdgeStyle;rounded=0;orthogonalLoop=1;jettySize=auto;html=1;entryX=1;entryY=0.25;entryDx=0;entryDy=0;" edge="1" parent="1" source="4xsE8DLzDOIBzloG8qF1-158" target="4xsE8DLzDOIBzloG8qF1-3">
          <mxGeometry relative="1" as="geometry">
            <mxPoint x="260" y="120" as="targetPoint" />
          </mxGeometry>
        </mxCell>
        <mxCell id="4xsE8DLzDOIBzloG8qF1-170" style="edgeStyle=orthogonalEdgeStyle;rounded=0;orthogonalLoop=1;jettySize=auto;html=1;entryX=0.5;entryY=1;entryDx=0;entryDy=0;" edge="1" parent="1" source="4xsE8DLzDOIBzloG8qF1-158" target="4xsE8DLzDOIBzloG8qF1-149">
          <mxGeometry relative="1" as="geometry" />
        </mxCell>
        <mxCell id="4xsE8DLzDOIBzloG8qF1-158" value="&lt;p data-pm-slice=&quot;1 1 []&quot;&gt;Aplica Setup&amp;nbsp;&lt;/p&gt;" style="shape=rhombus;perimeter=rhombusPerimeter;whiteSpace=wrap;html=1;align=center;" vertex="1" parent="1">
          <mxGeometry x="360" y="-147.5" width="120" height="60" as="geometry" />
        </mxCell>
        <mxCell id="4xsE8DLzDOIBzloG8qF1-161" style="edgeStyle=orthogonalEdgeStyle;rounded=0;orthogonalLoop=1;jettySize=auto;html=1;entryX=1;entryY=0.5;entryDx=0;entryDy=0;" edge="1" parent="1" source="4xsE8DLzDOIBzloG8qF1-159" target="4xsE8DLzDOIBzloG8qF1-3">
          <mxGeometry relative="1" as="geometry" />
        </mxCell>
        <mxCell id="4xsE8DLzDOIBzloG8qF1-171" style="edgeStyle=orthogonalEdgeStyle;rounded=0;orthogonalLoop=1;jettySize=auto;html=1;entryX=0.5;entryY=1;entryDx=0;entryDy=0;" edge="1" parent="1" source="4xsE8DLzDOIBzloG8qF1-159" target="4xsE8DLzDOIBzloG8qF1-151">
          <mxGeometry relative="1" as="geometry" />
        </mxCell>
        <mxCell id="4xsE8DLzDOIBzloG8qF1-159" value="&lt;p data-pm-slice=&quot;1 1 []&quot;&gt;Aplica Setup&amp;nbsp;&lt;/p&gt;" style="shape=rhombus;perimeter=rhombusPerimeter;whiteSpace=wrap;html=1;align=center;" vertex="1" parent="1">
          <mxGeometry x="430" y="-60" width="120" height="60" as="geometry" />
        </mxCell>
        <mxCell id="4xsE8DLzDOIBzloG8qF1-167" style="edgeStyle=orthogonalEdgeStyle;rounded=0;orthogonalLoop=1;jettySize=auto;html=1;entryX=0;entryY=0.75;entryDx=0;entryDy=0;exitX=0.5;exitY=1;exitDx=0;exitDy=0;" edge="1" parent="1" source="4xsE8DLzDOIBzloG8qF1-160" target="4xsE8DLzDOIBzloG8qF1-3">
          <mxGeometry relative="1" as="geometry" />
        </mxCell>
        <mxCell id="4xsE8DLzDOIBzloG8qF1-176" style="edgeStyle=orthogonalEdgeStyle;rounded=0;orthogonalLoop=1;jettySize=auto;html=1;entryX=0.5;entryY=1;entryDx=0;entryDy=0;" edge="1" parent="1" source="4xsE8DLzDOIBzloG8qF1-160" target="4xsE8DLzDOIBzloG8qF1-153">
          <mxGeometry relative="1" as="geometry" />
        </mxCell>
        <mxCell id="4xsE8DLzDOIBzloG8qF1-160" value="&lt;p data-pm-slice=&quot;1 1 []&quot;&gt;Existe&amp;nbsp;&lt;/p&gt;" style="shape=rhombus;perimeter=rhombusPerimeter;whiteSpace=wrap;html=1;align=center;" vertex="1" parent="1">
          <mxGeometry x="-70" y="-350" width="120" height="60" as="geometry" />
        </mxCell>
        <mxCell id="4xsE8DLzDOIBzloG8qF1-163" style="edgeStyle=orthogonalEdgeStyle;rounded=0;orthogonalLoop=1;jettySize=auto;html=1;entryX=1.01;entryY=0.117;entryDx=0;entryDy=0;entryPerimeter=0;" edge="1" parent="1" source="4xsE8DLzDOIBzloG8qF1-157" target="4xsE8DLzDOIBzloG8qF1-3">
          <mxGeometry relative="1" as="geometry" />
        </mxCell>
        <mxCell id="4xsE8DLzDOIBzloG8qF1-165" style="edgeStyle=orthogonalEdgeStyle;rounded=0;orthogonalLoop=1;jettySize=auto;html=1;entryX=-0.01;entryY=0.367;entryDx=0;entryDy=0;entryPerimeter=0;" edge="1" parent="1" source="4xsE8DLzDOIBzloG8qF1-155" target="4xsE8DLzDOIBzloG8qF1-3">
          <mxGeometry relative="1" as="geometry" />
        </mxCell>
        <mxCell id="4xsE8DLzDOIBzloG8qF1-178" value="ID_Sensor" style="ellipse;whiteSpace=wrap;html=1;align=center;fontStyle=4;" vertex="1" parent="1">
          <mxGeometry x="-210" y="-610" width="100" height="40" as="geometry" />
        </mxCell>
        <mxCell id="4xsE8DLzDOIBzloG8qF1-188" style="edgeStyle=orthogonalEdgeStyle;rounded=0;orthogonalLoop=1;jettySize=auto;html=1;entryX=0.25;entryY=0;entryDx=0;entryDy=0;" edge="1" parent="1" source="4xsE8DLzDOIBzloG8qF1-179" target="4xsE8DLzDOIBzloG8qF1-153">
          <mxGeometry relative="1" as="geometry" />
        </mxCell>
        <mxCell id="4xsE8DLzDOIBzloG8qF1-179" value="Nome" style="ellipse;whiteSpace=wrap;html=1;align=center;" vertex="1" parent="1">
          <mxGeometry x="-160" y="-690" width="100" height="40" as="geometry" />
        </mxCell>
        <mxCell id="4xsE8DLzDOIBzloG8qF1-187" style="edgeStyle=orthogonalEdgeStyle;rounded=0;orthogonalLoop=1;jettySize=auto;html=1;entryX=0.75;entryY=0;entryDx=0;entryDy=0;" edge="1" parent="1" source="4xsE8DLzDOIBzloG8qF1-180" target="4xsE8DLzDOIBzloG8qF1-153">
          <mxGeometry relative="1" as="geometry" />
        </mxCell>
        <mxCell id="4xsE8DLzDOIBzloG8qF1-180" value="Informação" style="ellipse;whiteSpace=wrap;html=1;align=center;" vertex="1" parent="1">
          <mxGeometry x="120" y="-600" width="100" height="40" as="geometry" />
        </mxCell>
        <mxCell id="4xsE8DLzDOIBzloG8qF1-184" style="edgeStyle=orthogonalEdgeStyle;rounded=0;orthogonalLoop=1;jettySize=auto;html=1;entryX=0.604;entryY=-0.019;entryDx=0;entryDy=0;entryPerimeter=0;" edge="1" parent="1" source="4xsE8DLzDOIBzloG8qF1-181" target="4xsE8DLzDOIBzloG8qF1-153">
          <mxGeometry relative="1" as="geometry">
            <mxPoint y="-570" as="targetPoint" />
          </mxGeometry>
        </mxCell>
        <mxCell id="4xsE8DLzDOIBzloG8qF1-181" value="ID_Teste" style="ellipse;whiteSpace=wrap;html=1;align=center;" vertex="1" parent="1">
          <mxGeometry x="70" y="-650" width="100" height="40" as="geometry" />
        </mxCell>
        <mxCell id="4xsE8DLzDOIBzloG8qF1-189" style="edgeStyle=orthogonalEdgeStyle;rounded=0;orthogonalLoop=1;jettySize=auto;html=1;entryX=0.5;entryY=0;entryDx=0;entryDy=0;" edge="1" parent="1" source="4xsE8DLzDOIBzloG8qF1-182" target="4xsE8DLzDOIBzloG8qF1-153">
          <mxGeometry relative="1" as="geometry" />
        </mxCell>
        <mxCell id="4xsE8DLzDOIBzloG8qF1-182" value="Funcionamento" style="ellipse;whiteSpace=wrap;html=1;align=center;" vertex="1" parent="1">
          <mxGeometry x="-60" y="-720" width="100" height="40" as="geometry" />
        </mxCell>
        <mxCell id="4xsE8DLzDOIBzloG8qF1-185" style="edgeStyle=orthogonalEdgeStyle;rounded=0;orthogonalLoop=1;jettySize=auto;html=1;entryX=0.116;entryY=-0.042;entryDx=0;entryDy=0;entryPerimeter=0;" edge="1" parent="1" source="4xsE8DLzDOIBzloG8qF1-178" target="4xsE8DLzDOIBzloG8qF1-153">
          <mxGeometry relative="1" as="geometry" />
        </mxCell>
        <mxCell id="4xsE8DLzDOIBzloG8qF1-193" style="edgeStyle=orthogonalEdgeStyle;rounded=0;orthogonalLoop=1;jettySize=auto;html=1;entryX=0.25;entryY=0;entryDx=0;entryDy=0;" edge="1" parent="1" source="4xsE8DLzDOIBzloG8qF1-190" target="4xsE8DLzDOIBzloG8qF1-146">
          <mxGeometry relative="1" as="geometry" />
        </mxCell>
        <mxCell id="4xsE8DLzDOIBzloG8qF1-190" value="ID_Teste" style="ellipse;whiteSpace=wrap;html=1;align=center;" vertex="1" parent="1">
          <mxGeometry x="-270" y="-420" width="100" height="40" as="geometry" />
        </mxCell>
        <mxCell id="4xsE8DLzDOIBzloG8qF1-194" style="edgeStyle=orthogonalEdgeStyle;rounded=0;orthogonalLoop=1;jettySize=auto;html=1;entryX=0.25;entryY=0;entryDx=0;entryDy=0;" edge="1" parent="1" source="4xsE8DLzDOIBzloG8qF1-191" target="4xsE8DLzDOIBzloG8qF1-148">
          <mxGeometry relative="1" as="geometry" />
        </mxCell>
        <mxCell id="4xsE8DLzDOIBzloG8qF1-191" value="ID_Teste" style="ellipse;whiteSpace=wrap;html=1;align=center;" vertex="1" parent="1">
          <mxGeometry x="-463" y="-320" width="100" height="40" as="geometry" />
        </mxCell>
        <mxCell id="4xsE8DLzDOIBzloG8qF1-195" style="edgeStyle=orthogonalEdgeStyle;rounded=0;orthogonalLoop=1;jettySize=auto;html=1;entryX=0.25;entryY=0;entryDx=0;entryDy=0;" edge="1" parent="1" source="4xsE8DLzDOIBzloG8qF1-192" target="4xsE8DLzDOIBzloG8qF1-150">
          <mxGeometry relative="1" as="geometry" />
        </mxCell>
        <mxCell id="4xsE8DLzDOIBzloG8qF1-192" value="ID_Teste" style="ellipse;whiteSpace=wrap;html=1;align=center;" vertex="1" parent="1">
          <mxGeometry x="-610" y="-220" width="100" height="40" as="geometry" />
        </mxCell>
        <mxCell id="4xsE8DLzDOIBzloG8qF1-197" style="edgeStyle=orthogonalEdgeStyle;rounded=0;orthogonalLoop=1;jettySize=auto;html=1;entryX=0.5;entryY=0;entryDx=0;entryDy=0;" edge="1" parent="1" source="4xsE8DLzDOIBzloG8qF1-196" target="4xsE8DLzDOIBzloG8qF1-147">
          <mxGeometry relative="1" as="geometry" />
        </mxCell>
        <mxCell id="4xsE8DLzDOIBzloG8qF1-196" value="ID_Teste" style="ellipse;whiteSpace=wrap;html=1;align=center;" vertex="1" parent="1">
          <mxGeometry x="504" y="-480" width="100" height="40" as="geometry" />
        </mxCell>
        <mxCell id="4xsE8DLzDOIBzloG8qF1-200" style="edgeStyle=orthogonalEdgeStyle;rounded=0;orthogonalLoop=1;jettySize=auto;html=1;entryX=0.5;entryY=0;entryDx=0;entryDy=0;" edge="1" parent="1" source="4xsE8DLzDOIBzloG8qF1-198" target="4xsE8DLzDOIBzloG8qF1-149">
          <mxGeometry relative="1" as="geometry" />
        </mxCell>
        <mxCell id="4xsE8DLzDOIBzloG8qF1-198" value="ID_Teste" style="ellipse;whiteSpace=wrap;html=1;align=center;" vertex="1" parent="1">
          <mxGeometry x="630" y="-380" width="100" height="40" as="geometry" />
        </mxCell>
        <mxCell id="4xsE8DLzDOIBzloG8qF1-201" style="edgeStyle=orthogonalEdgeStyle;rounded=0;orthogonalLoop=1;jettySize=auto;html=1;" edge="1" parent="1" source="4xsE8DLzDOIBzloG8qF1-199" target="4xsE8DLzDOIBzloG8qF1-151">
          <mxGeometry relative="1" as="geometry" />
        </mxCell>
        <mxCell id="4xsE8DLzDOIBzloG8qF1-199" value="ID_Teste" style="ellipse;whiteSpace=wrap;html=1;align=center;" vertex="1" parent="1">
          <mxGeometry x="800" y="-290" width="100" height="40" as="geometry" />
        </mxCell>
        <mxCell id="4xsE8DLzDOIBzloG8qF1-202" value="ID_Configuração" style="ellipse;whiteSpace=wrap;html=1;align=center;fontStyle=4;" vertex="1" parent="1">
          <mxGeometry x="770" y="-340" width="100" height="40" as="geometry" />
        </mxCell>
        <mxCell id="4xsE8DLzDOIBzloG8qF1-212" style="edgeStyle=orthogonalEdgeStyle;rounded=0;orthogonalLoop=1;jettySize=auto;html=1;entryX=0.25;entryY=0;entryDx=0;entryDy=0;" edge="1" parent="1" source="4xsE8DLzDOIBzloG8qF1-203" target="4xsE8DLzDOIBzloG8qF1-149">
          <mxGeometry relative="1" as="geometry" />
        </mxCell>
        <mxCell id="4xsE8DLzDOIBzloG8qF1-203" value="ID_Configuração" style="ellipse;whiteSpace=wrap;html=1;align=center;fontStyle=4;" vertex="1" parent="1">
          <mxGeometry x="620" y="-430" width="100" height="40" as="geometry" />
        </mxCell>
        <mxCell id="4xsE8DLzDOIBzloG8qF1-213" style="edgeStyle=orthogonalEdgeStyle;rounded=0;orthogonalLoop=1;jettySize=auto;html=1;entryX=0.25;entryY=0;entryDx=0;entryDy=0;" edge="1" parent="1" source="4xsE8DLzDOIBzloG8qF1-204" target="4xsE8DLzDOIBzloG8qF1-147">
          <mxGeometry relative="1" as="geometry" />
        </mxCell>
        <mxCell id="4xsE8DLzDOIBzloG8qF1-204" value="ID_Configuração" style="ellipse;whiteSpace=wrap;html=1;align=center;fontStyle=4;" vertex="1" parent="1">
          <mxGeometry x="430" y="-530" width="100" height="40" as="geometry" />
        </mxCell>
        <mxCell id="4xsE8DLzDOIBzloG8qF1-210" style="edgeStyle=orthogonalEdgeStyle;rounded=0;orthogonalLoop=1;jettySize=auto;html=1;entryX=0.5;entryY=0;entryDx=0;entryDy=0;" edge="1" parent="1" source="4xsE8DLzDOIBzloG8qF1-205" target="4xsE8DLzDOIBzloG8qF1-146">
          <mxGeometry relative="1" as="geometry" />
        </mxCell>
        <mxCell id="4xsE8DLzDOIBzloG8qF1-205" value="ID_Configuração" style="ellipse;whiteSpace=wrap;html=1;align=center;fontStyle=4;" vertex="1" parent="1">
          <mxGeometry x="-160" y="-430" width="100" height="40" as="geometry" />
        </mxCell>
        <mxCell id="4xsE8DLzDOIBzloG8qF1-209" style="edgeStyle=orthogonalEdgeStyle;rounded=0;orthogonalLoop=1;jettySize=auto;html=1;entryX=0.5;entryY=0;entryDx=0;entryDy=0;" edge="1" parent="1" source="4xsE8DLzDOIBzloG8qF1-206" target="4xsE8DLzDOIBzloG8qF1-148">
          <mxGeometry relative="1" as="geometry" />
        </mxCell>
        <mxCell id="4xsE8DLzDOIBzloG8qF1-206" value="ID_Configuração" style="ellipse;whiteSpace=wrap;html=1;align=center;fontStyle=4;" vertex="1" parent="1">
          <mxGeometry x="-413" y="-400" width="100" height="40" as="geometry" />
        </mxCell>
        <mxCell id="4xsE8DLzDOIBzloG8qF1-208" style="edgeStyle=orthogonalEdgeStyle;rounded=0;orthogonalLoop=1;jettySize=auto;html=1;entryX=0.5;entryY=0;entryDx=0;entryDy=0;" edge="1" parent="1" source="4xsE8DLzDOIBzloG8qF1-207" target="4xsE8DLzDOIBzloG8qF1-150">
          <mxGeometry relative="1" as="geometry" />
        </mxCell>
        <mxCell id="4xsE8DLzDOIBzloG8qF1-207" value="ID_Configuração" style="ellipse;whiteSpace=wrap;html=1;align=center;fontStyle=4;" vertex="1" parent="1">
          <mxGeometry x="-550" y="-280" width="100" height="40" as="geometry" />
        </mxCell>
        <mxCell id="4xsE8DLzDOIBzloG8qF1-211" style="edgeStyle=orthogonalEdgeStyle;rounded=0;orthogonalLoop=1;jettySize=auto;html=1;entryX=0.387;entryY=0.003;entryDx=0;entryDy=0;entryPerimeter=0;" edge="1" parent="1" source="4xsE8DLzDOIBzloG8qF1-202" target="4xsE8DLzDOIBzloG8qF1-151">
          <mxGeometry relative="1" as="geometry" />
        </mxCell>
        <mxCell id="4xsE8DLzDOIBzloG8qF1-214" value="Fator Externo" style="whiteSpace=wrap;html=1;align=center;" vertex="1" parent="1">
          <mxGeometry x="-160" y="670" width="100" height="40" as="geometry" />
        </mxCell>
        <mxCell id="4xsE8DLzDOIBzloG8qF1-227" style="edgeStyle=orthogonalEdgeStyle;rounded=0;orthogonalLoop=1;jettySize=auto;html=1;entryX=1;entryY=0.5;entryDx=0;entryDy=0;" edge="1" parent="1" source="4xsE8DLzDOIBzloG8qF1-215" target="4xsE8DLzDOIBzloG8qF1-214">
          <mxGeometry relative="1" as="geometry" />
        </mxCell>
        <mxCell id="4xsE8DLzDOIBzloG8qF1-215" value="ID_Fator" style="ellipse;whiteSpace=wrap;html=1;align=center;fontStyle=4;" vertex="1" parent="1">
          <mxGeometry x="-20" y="650" width="100" height="40" as="geometry" />
        </mxCell>
        <mxCell id="4xsE8DLzDOIBzloG8qF1-216" value="ID_Teste" style="ellipse;whiteSpace=wrap;html=1;align=center;" vertex="1" parent="1">
          <mxGeometry x="-30" y="700" width="100" height="40" as="geometry" />
        </mxCell>
        <mxCell id="4xsE8DLzDOIBzloG8qF1-217" value="Temperatura" style="ellipse;whiteSpace=wrap;html=1;align=center;" vertex="1" parent="1">
          <mxGeometry x="-40" y="750" width="100" height="40" as="geometry" />
        </mxCell>
        <mxCell id="4xsE8DLzDOIBzloG8qF1-224" style="edgeStyle=orthogonalEdgeStyle;rounded=0;orthogonalLoop=1;jettySize=auto;html=1;entryX=0.25;entryY=1;entryDx=0;entryDy=0;" edge="1" parent="1" source="4xsE8DLzDOIBzloG8qF1-218" target="4xsE8DLzDOIBzloG8qF1-214">
          <mxGeometry relative="1" as="geometry" />
        </mxCell>
        <mxCell id="4xsE8DLzDOIBzloG8qF1-218" value="Clima" style="ellipse;whiteSpace=wrap;html=1;align=center;" vertex="1" parent="1">
          <mxGeometry x="-170" y="780" width="100" height="40" as="geometry" />
        </mxCell>
        <mxCell id="4xsE8DLzDOIBzloG8qF1-220" value="Hora" style="ellipse;whiteSpace=wrap;html=1;align=center;" vertex="1" parent="1">
          <mxGeometry x="-310" y="740" width="100" height="40" as="geometry" />
        </mxCell>
        <mxCell id="4xsE8DLzDOIBzloG8qF1-222" style="edgeStyle=orthogonalEdgeStyle;rounded=0;orthogonalLoop=1;jettySize=auto;html=1;" edge="1" parent="1" source="4xsE8DLzDOIBzloG8qF1-221" target="4xsE8DLzDOIBzloG8qF1-214">
          <mxGeometry relative="1" as="geometry" />
        </mxCell>
        <mxCell id="4xsE8DLzDOIBzloG8qF1-221" value="Temperatura Pista&amp;nbsp;" style="ellipse;whiteSpace=wrap;html=1;align=center;" vertex="1" parent="1">
          <mxGeometry x="-310" y="670" width="100" height="40" as="geometry" />
        </mxCell>
        <mxCell id="4xsE8DLzDOIBzloG8qF1-223" style="edgeStyle=orthogonalEdgeStyle;rounded=0;orthogonalLoop=1;jettySize=auto;html=1;entryX=0.138;entryY=1.019;entryDx=0;entryDy=0;entryPerimeter=0;" edge="1" parent="1" source="4xsE8DLzDOIBzloG8qF1-220" target="4xsE8DLzDOIBzloG8qF1-214">
          <mxGeometry relative="1" as="geometry" />
        </mxCell>
        <mxCell id="4xsE8DLzDOIBzloG8qF1-225" style="edgeStyle=orthogonalEdgeStyle;rounded=0;orthogonalLoop=1;jettySize=auto;html=1;entryX=0.444;entryY=1.097;entryDx=0;entryDy=0;entryPerimeter=0;" edge="1" parent="1" source="4xsE8DLzDOIBzloG8qF1-217" target="4xsE8DLzDOIBzloG8qF1-214">
          <mxGeometry relative="1" as="geometry" />
        </mxCell>
        <mxCell id="4xsE8DLzDOIBzloG8qF1-226" style="edgeStyle=orthogonalEdgeStyle;rounded=0;orthogonalLoop=1;jettySize=auto;html=1;entryX=0.702;entryY=0.986;entryDx=0;entryDy=0;entryPerimeter=0;" edge="1" parent="1" source="4xsE8DLzDOIBzloG8qF1-216" target="4xsE8DLzDOIBzloG8qF1-214">
          <mxGeometry relative="1" as="geometry" />
        </mxCell>
        <mxCell id="4xsE8DLzDOIBzloG8qF1-229" style="edgeStyle=orthogonalEdgeStyle;rounded=0;orthogonalLoop=1;jettySize=auto;html=1;entryX=0.5;entryY=0;entryDx=0;entryDy=0;" edge="1" parent="1" source="4xsE8DLzDOIBzloG8qF1-228" target="4xsE8DLzDOIBzloG8qF1-214">
          <mxGeometry relative="1" as="geometry" />
        </mxCell>
        <mxCell id="4xsE8DLzDOIBzloG8qF1-230" style="edgeStyle=orthogonalEdgeStyle;rounded=0;orthogonalLoop=1;jettySize=auto;html=1;entryX=0;entryY=0.5;entryDx=0;entryDy=0;" edge="1" parent="1" target="4xsE8DLzDOIBzloG8qF1-3">
          <mxGeometry relative="1" as="geometry">
            <mxPoint x="30" y="130" as="targetPoint" />
            <mxPoint y="565" as="sourcePoint" />
          </mxGeometry>
        </mxCell>
        <mxCell id="4xsE8DLzDOIBzloG8qF1-228" value="Afeta" style="shape=rhombus;perimeter=rhombusPerimeter;whiteSpace=wrap;html=1;align=center;" vertex="1" parent="1">
          <mxGeometry x="-110" y="535" width="120" height="60" as="geometry" />
        </mxCell>
        <mxCell id="4xsE8DLzDOIBzloG8qF1-231" value="Link" style="ellipse;whiteSpace=wrap;html=1;align=center;" vertex="1" parent="1">
          <mxGeometry x="-1130" y="212.5" width="100" height="40" as="geometry" />
        </mxCell>
        <mxCell id="4xsE8DLzDOIBzloG8qF1-232" value="Descrição" style="ellipse;whiteSpace=wrap;html=1;align=center;" vertex="1" parent="1">
          <mxGeometry x="-1140" y="160" width="100" height="40" as="geometry" />
        </mxCell>
        <mxCell id="4xsE8DLzDOIBzloG8qF1-233" style="edgeStyle=orthogonalEdgeStyle;rounded=0;orthogonalLoop=1;jettySize=auto;html=1;entryX=0.023;entryY=1.013;entryDx=0;entryDy=0;entryPerimeter=0;" edge="1" parent="1" source="4xsE8DLzDOIBzloG8qF1-232" target="4xsE8DLzDOIBzloG8qF1-5">
          <mxGeometry relative="1" as="geometry" />
        </mxCell>
        <mxCell id="4xsE8DLzDOIBzloG8qF1-234" style="edgeStyle=orthogonalEdgeStyle;rounded=0;orthogonalLoop=1;jettySize=auto;html=1;entryX=0.11;entryY=1.013;entryDx=0;entryDy=0;entryPerimeter=0;" edge="1" parent="1" source="4xsE8DLzDOIBzloG8qF1-231" target="4xsE8DLzDOIBzloG8qF1-5">
          <mxGeometry relative="1" as="geometry" />
        </mxCell>
        <mxCell id="4xsE8DLzDOIBzloG8qF1-237" style="edgeStyle=orthogonalEdgeStyle;rounded=0;orthogonalLoop=1;jettySize=auto;html=1;entryX=0;entryY=0.5;entryDx=0;entryDy=0;" edge="1" parent="1" source="4xsE8DLzDOIBzloG8qF1-235" target="4xsE8DLzDOIBzloG8qF1-236">
          <mxGeometry relative="1" as="geometry" />
        </mxCell>
        <mxCell id="4xsE8DLzDOIBzloG8qF1-238" style="edgeStyle=orthogonalEdgeStyle;rounded=0;orthogonalLoop=1;jettySize=auto;html=1;entryX=1;entryY=0.5;entryDx=0;entryDy=0;" edge="1" parent="1" source="4xsE8DLzDOIBzloG8qF1-235" target="4xsE8DLzDOIBzloG8qF1-3">
          <mxGeometry relative="1" as="geometry">
            <Array as="points">
              <mxPoint x="280" y="640" />
              <mxPoint x="280" y="130" />
            </Array>
          </mxGeometry>
        </mxCell>
        <mxCell id="4xsE8DLzDOIBzloG8qF1-235" value="Utiliza" style="shape=rhombus;perimeter=rhombusPerimeter;whiteSpace=wrap;html=1;align=center;" vertex="1" parent="1">
          <mxGeometry x="290" y="610" width="120" height="60" as="geometry" />
        </mxCell>
        <mxCell id="4xsE8DLzDOIBzloG8qF1-236" value="Prototipo" style="whiteSpace=wrap;html=1;align=center;" vertex="1" parent="1">
          <mxGeometry x="540" y="620" width="100" height="40" as="geometry" />
        </mxCell>
        <mxCell id="4xsE8DLzDOIBzloG8qF1-239" value="ID_Prototipo" style="ellipse;whiteSpace=wrap;html=1;align=center;fontStyle=4;" vertex="1" parent="1">
          <mxGeometry x="450" y="710" width="100" height="40" as="geometry" />
        </mxCell>
        <mxCell id="4xsE8DLzDOIBzloG8qF1-250" style="edgeStyle=orthogonalEdgeStyle;rounded=0;orthogonalLoop=1;jettySize=auto;html=1;entryX=0.25;entryY=1;entryDx=0;entryDy=0;" edge="1" parent="1" source="4xsE8DLzDOIBzloG8qF1-240" target="4xsE8DLzDOIBzloG8qF1-236">
          <mxGeometry relative="1" as="geometry" />
        </mxCell>
        <mxCell id="4xsE8DLzDOIBzloG8qF1-240" value="Temporada" style="ellipse;whiteSpace=wrap;html=1;align=center;" vertex="1" parent="1">
          <mxGeometry x="550" y="740" width="100" height="40" as="geometry" />
        </mxCell>
        <mxCell id="4xsE8DLzDOIBzloG8qF1-252" style="edgeStyle=orthogonalEdgeStyle;rounded=0;orthogonalLoop=1;jettySize=auto;html=1;entryX=0.75;entryY=0;entryDx=0;entryDy=0;" edge="1" parent="1" source="4xsE8DLzDOIBzloG8qF1-241" target="4xsE8DLzDOIBzloG8qF1-236">
          <mxGeometry relative="1" as="geometry" />
        </mxCell>
        <mxCell id="4xsE8DLzDOIBzloG8qF1-241" value="Nome" style="ellipse;whiteSpace=wrap;html=1;align=center;" vertex="1" parent="1">
          <mxGeometry x="674" y="560" width="100" height="40" as="geometry" />
        </mxCell>
        <mxCell id="4xsE8DLzDOIBzloG8qF1-242" value="ID_Prototipo" style="ellipse;whiteSpace=wrap;html=1;align=center;" vertex="1" parent="1">
          <mxGeometry x="20" y="-470" width="100" height="40" as="geometry" />
        </mxCell>
        <mxCell id="4xsE8DLzDOIBzloG8qF1-243" style="edgeStyle=orthogonalEdgeStyle;rounded=0;orthogonalLoop=1;jettySize=auto;html=1;entryX=0.413;entryY=0.064;entryDx=0;entryDy=0;entryPerimeter=0;" edge="1" parent="1" source="4xsE8DLzDOIBzloG8qF1-242" target="4xsE8DLzDOIBzloG8qF1-3">
          <mxGeometry relative="1" as="geometry">
            <Array as="points">
              <mxPoint x="120" y="-160" />
              <mxPoint x="121" y="-160" />
            </Array>
          </mxGeometry>
        </mxCell>
        <mxCell id="4xsE8DLzDOIBzloG8qF1-251" style="edgeStyle=orthogonalEdgeStyle;rounded=0;orthogonalLoop=1;jettySize=auto;html=1;entryX=0.5;entryY=1;entryDx=0;entryDy=0;" edge="1" parent="1" source="4xsE8DLzDOIBzloG8qF1-244" target="4xsE8DLzDOIBzloG8qF1-236">
          <mxGeometry relative="1" as="geometry" />
        </mxCell>
        <mxCell id="4xsE8DLzDOIBzloG8qF1-244" value="Peso" style="ellipse;whiteSpace=wrap;html=1;align=center;" vertex="1" parent="1">
          <mxGeometry x="640" y="700" width="100" height="40" as="geometry" />
        </mxCell>
        <mxCell id="4xsE8DLzDOIBzloG8qF1-248" style="edgeStyle=orthogonalEdgeStyle;rounded=0;orthogonalLoop=1;jettySize=auto;html=1;entryX=0.5;entryY=0;entryDx=0;entryDy=0;" edge="1" parent="1" source="4xsE8DLzDOIBzloG8qF1-245" target="4xsE8DLzDOIBzloG8qF1-236">
          <mxGeometry relative="1" as="geometry" />
        </mxCell>
        <mxCell id="4xsE8DLzDOIBzloG8qF1-245" value="Ano de Fabricação" style="ellipse;whiteSpace=wrap;html=1;align=center;" vertex="1" parent="1">
          <mxGeometry x="574" y="520" width="100" height="40" as="geometry" />
        </mxCell>
        <mxCell id="4xsE8DLzDOIBzloG8qF1-247" style="edgeStyle=orthogonalEdgeStyle;rounded=0;orthogonalLoop=1;jettySize=auto;html=1;entryX=0.25;entryY=0;entryDx=0;entryDy=0;" edge="1" parent="1" source="4xsE8DLzDOIBzloG8qF1-246" target="4xsE8DLzDOIBzloG8qF1-236">
          <mxGeometry relative="1" as="geometry" />
        </mxCell>
        <mxCell id="4xsE8DLzDOIBzloG8qF1-246" value="Status do Carro" style="ellipse;whiteSpace=wrap;html=1;align=center;" vertex="1" parent="1">
          <mxGeometry x="490" y="550" width="100" height="40" as="geometry" />
        </mxCell>
        <mxCell id="4xsE8DLzDOIBzloG8qF1-249" style="edgeStyle=orthogonalEdgeStyle;rounded=0;orthogonalLoop=1;jettySize=auto;html=1;entryX=0.133;entryY=1.036;entryDx=0;entryDy=0;entryPerimeter=0;" edge="1" parent="1" source="4xsE8DLzDOIBzloG8qF1-239" target="4xsE8DLzDOIBzloG8qF1-236">
          <mxGeometry relative="1" as="geometry" />
        </mxCell>
        <mxCell id="lNVG-OiDYIden_SdhLuP-2" style="edgeStyle=orthogonalEdgeStyle;rounded=0;orthogonalLoop=1;jettySize=auto;html=1;entryX=0;entryY=0.25;entryDx=0;entryDy=0;" edge="1" parent="1" source="lNVG-OiDYIden_SdhLuP-1" target="4xsE8DLzDOIBzloG8qF1-4">
          <mxGeometry relative="1" as="geometry" />
        </mxCell>
        <mxCell id="lNVG-OiDYIden_SdhLuP-1" value="num_pessoas_manutenção" style="ellipse;whiteSpace=wrap;html=1;align=center;" vertex="1" parent="1">
          <mxGeometry x="-650" y="447.5" width="160" height="45" as="geometry" />
        </mxCell>
        <mxCell id="lNVG-OiDYIden_SdhLuP-4" style="edgeStyle=orthogonalEdgeStyle;rounded=0;orthogonalLoop=1;jettySize=auto;html=1;entryX=0;entryY=0.75;entryDx=0;entryDy=0;" edge="1" parent="1" source="lNVG-OiDYIden_SdhLuP-3" target="4xsE8DLzDOIBzloG8qF1-4">
          <mxGeometry relative="1" as="geometry" />
        </mxCell>
        <mxCell id="lNVG-OiDYIden_SdhLuP-3" value="subgrupo" style="ellipse;whiteSpace=wrap;html=1;align=center;" vertex="1" parent="1">
          <mxGeometry x="-630" y="510" width="100" height="40" as="geometry" />
        </mxCell>
      </root>
    </mxGraphModel>
  </diagram>
</mxfile>
